<?xml version="1.0" encoding="UTF-8" standalone="no"?>
<!DOCTYPE svg PUBLIC "-//W3C//DTD SVG 1.1//EN" "http://www.w3.org/Graphics/SVG/1.1/DTD/svg11.dtd">
<svg width="100%" height="100%" viewBox="0 0 512 512" version="1.1" xmlns="http://www.w3.org/2000/svg" xmlns:xlink="http://www.w3.org/1999/xlink" xml:space="preserve" xmlns:serif="http://www.serif.com/" style="fill-rule:evenodd;clip-rule:evenodd;stroke-linejoin:round;stroke-miterlimit:2;">
    <g>
        <g transform="matrix(2.24601,0,0,2.28986,-405.277,-90.2039)">
            <ellipse cx="294.423" cy="151.19" rx="106.856" ry="104.81" style="fill:rgb(49,27,146);"/>
        </g>
        <g transform="matrix(0.761905,0,0,0.761905,60.9524,40.3819)">
            <g transform="matrix(4.63692,0,0,4.63692,-419.351,-785.091)">
                <g transform="matrix(79.4784,0,0,79.4784,95.5844,252.774)">
                    <path d="M0.533,0L0.397,0L0.397,-0.308L0.196,-0.308L0.196,0L0.06,0L0.06,-0.711L0.196,-0.711L0.196,-0.419L0.397,-0.419L0.397,-0.711L0.533,-0.711L0.533,0Z" style="fill:white;fill-rule:nonzero;"/>
                </g>
                <g transform="matrix(79.4784,0,0,79.4784,143.279,252.774)">
                    <path d="M0.414,-0.148L0.2,-0.148L0.158,0L0.014,0L0.247,-0.711L0.371,-0.711L0.6,0L0.455,0L0.414,-0.148ZM0.234,-0.265L0.381,-0.265L0.309,-0.527L0.234,-0.265Z" style="fill:white;fill-rule:nonzero;"/>
                </g>
            </g>
            <g transform="matrix(1.26224,0,0,1.02582,-37.463,-22.7454)">
                <rect x="66.123" y="420.878" width="332.742" height="31.195" style="fill:rgb(174,234,0);"/>
            </g>
        </g>
    </g>
</svg>
